<svg width="44" height="44" viewBox="0 0 44 44" fill="none" xmlns="http://www.w3.org/2000/svg">
<path d="M22 0C9.86913 0 0 9.86913 0 22C0 34.1309 9.86913 44 22 44C34.1309 44 44 34.1309 44 22C44 9.86913 34.1309 0 22 0ZM36.5457 10.1454C39.1629 13.343 40.7478 17.4157 40.7892 21.8511C40.1696 21.72 33.9569 20.4599 27.7043 21.2462C27.194 20.0007 26.7124 18.9049 26.0528 17.5547C33.0006 14.718 36.1495 10.6813 36.5457 10.1454ZM34.4567 7.97234C34.1187 8.45377 31.29 12.2558 24.6081 14.7603C21.5288 9.10277 18.1158 4.45509 17.5965 3.7596C23.5556 2.32313 29.8354 3.87227 34.4567 7.97234ZM14.0109 5.02274C14.5063 5.70217 17.8643 10.3556 20.9779 15.8905C12.1879 18.2247 4.44595 18.1911 3.60552 18.18C4.82403 12.3488 8.75369 7.50244 14.0109 5.02274ZM3.20863 22.0287C3.20863 21.8365 3.21244 21.6453 3.21821 21.4544C4.04037 21.4713 13.1466 21.5887 22.5308 18.7802C23.0688 19.833 23.5827 20.9017 24.0543 21.9692C17.2593 23.8831 11.0855 29.3789 8.03949 34.5931C5.03818 31.2617 3.20863 26.8551 3.20863 22.0287ZM10.4657 36.8532C12.4286 32.8406 17.7557 27.6609 25.3316 25.0765C27.9698 31.9322 29.0608 37.6779 29.3403 39.3266C23.2981 41.9003 16.0325 41.1942 10.4657 36.8532ZM32.4994 37.6062C32.3068 36.4631 31.3066 30.9622 28.8488 24.2082C34.7374 23.2655 39.9109 24.8085 40.5538 25.0114C39.7162 30.2401 36.7151 34.7556 32.4994 37.6062Z" fill="black"/>
</svg>
