<svg width="36" height="36" viewBox="0 0 36 36" fill="none" xmlns="http://www.w3.org/2000/svg">
<path d="M18.0252 0C8.24759 0 0.292969 7.95463 0.292969 17.7322C0.292969 27.5099 8.24759 35.4645 18.0252 35.4645C27.8028 35.4645 35.7575 27.5099 35.7575 17.7322C35.7575 7.95463 27.8028 0 18.0252 0ZM29.7492 8.17728C31.8587 10.7546 33.1362 14.0373 33.1695 17.6122C32.6701 17.5066 27.6626 16.4909 22.6229 17.1247C22.2117 16.1208 21.8235 15.2376 21.2918 14.1493C26.8918 11.8629 29.4299 8.60922 29.7492 8.17728ZM28.0654 6.42579C27.793 6.81383 25.5131 9.87829 20.1273 11.897C17.6454 7.33693 14.8945 3.59085 14.4759 3.03028C19.2791 1.87247 24.3406 3.12109 28.0654 6.42579ZM11.5859 4.04839C11.9852 4.59601 14.6918 8.34674 17.2014 12.8079C10.1166 14.6893 3.87645 14.6622 3.19905 14.6533C4.18119 9.95329 7.34854 6.04705 11.5859 4.04839ZM2.87916 17.7553C2.87916 17.6005 2.88223 17.4463 2.88688 17.2925C3.54955 17.3061 10.8893 17.4007 18.4531 15.137C18.8867 15.9856 19.3009 16.847 19.681 17.7074C14.2041 19.2501 9.22802 23.6797 6.77289 27.8824C4.3538 25.1973 2.87916 21.6455 2.87916 17.7553ZM8.72844 29.7041C10.3105 26.4699 14.6042 22.295 20.7105 20.2119C22.8369 25.7377 23.7163 30.3688 23.9416 31.6977C19.0715 33.7721 13.2153 33.203 8.72844 29.7041ZM26.4879 30.311C26.3326 29.3897 25.5264 24.9558 23.5454 19.512C28.2917 18.7523 32.4616 19.996 32.9798 20.1595C32.3047 24.3738 29.8857 28.0134 26.4879 30.311Z" fill="#F3F3F3"/>
</svg>
