<svg width="32" height="33" viewBox="0 0 32 33" fill="none" xmlns="http://www.w3.org/2000/svg">
<path d="M31.4344 4.06615V29.3979C31.4344 31.305 29.9259 32.8523 28.0665 32.8523H22.0813V20.1H26.3333L26.9438 15.2352H22.0813V12.1263C22.0813 10.7157 22.4602 9.7586 24.4318 9.7586H26.9438V5.4119C26.5088 5.35433 25.0212 5.21759 23.2811 5.21759C19.6605 5.21759 17.1767 7.4845 17.1767 11.6513V15.2424H12.9106V20.1072H17.1837V32.8523H3.36797C1.50857 32.8523 0 31.305 0 29.3979V4.06615C0 2.15907 1.50857 0.611816 3.36797 0.611816H28.0665C29.9259 0.611816 31.4344 2.15907 31.4344 4.06615Z" fill="#F3F3F3"/>
</svg>
