<svg width="39" height="40" viewBox="0 0 39 40" fill="none" xmlns="http://www.w3.org/2000/svg">
<path d="M39 4.28571V35.7143C39 38.0804 37.1283 40 34.8214 40H27.3958V24.1786H32.6712L33.4286 18.1429H27.3958V14.2857C27.3958 12.5357 27.8659 11.3482 30.3121 11.3482H33.4286V5.95536C32.8888 5.88393 31.0433 5.71429 28.8844 5.71429C24.3924 5.71429 21.3107 8.52678 21.3107 13.6964V18.1518H16.0179V24.1875H21.3194V40H4.17857C1.87165 40 0 38.0804 0 35.7143V4.28571C0 1.91964 1.87165 0 4.17857 0H34.8214C37.1283 0 39 1.91964 39 4.28571Z" fill="black"/>
</svg>
