<svg width="39" height="40" viewBox="0 0 39 40" fill="none" xmlns="http://www.w3.org/2000/svg">
<path d="M19.5044 9.74451C13.9708 9.74451 9.50747 14.3233 9.50747 20C9.50747 25.6767 13.9708 30.2555 19.5044 30.2555C25.0379 30.2555 29.5012 25.6767 29.5012 20C29.5012 14.3233 25.0379 9.74451 19.5044 9.74451ZM19.5044 26.6674C15.9284 26.6674 13.0051 23.6773 13.0051 20C13.0051 16.3227 15.9197 13.3326 19.5044 13.3326C23.089 13.3326 26.0036 16.3227 26.0036 20C26.0036 23.6773 23.0803 26.6674 19.5044 26.6674ZM32.2419 9.325C32.2419 10.6549 31.1978 11.7171 29.9102 11.7171C28.6138 11.7171 27.5784 10.646 27.5784 9.325C27.5784 8.00402 28.6225 6.93295 29.9102 6.93295C31.1978 6.93295 32.2419 8.00402 32.2419 9.325ZM38.863 11.7528C38.7151 8.54848 38.0016 5.71014 35.7134 3.37164C33.4339 1.03314 30.6671 0.301239 27.5436 0.140578C24.3244 -0.0468592 14.6756 -0.0468592 11.4564 0.140578C8.34161 0.292313 5.57485 1.02421 3.28661 3.36271C0.998383 5.70122 0.293642 8.53955 0.137033 11.7438C-0.0456776 15.0463 -0.0456776 24.9448 0.137033 28.2472C0.284941 31.4515 0.998383 34.2899 3.28661 36.6284C5.57485 38.9669 8.33291 39.6988 11.4564 39.8594C14.6756 40.0469 24.3244 40.0469 27.5436 39.8594C30.6671 39.7077 33.4339 38.9758 35.7134 36.6284C37.9929 34.2899 38.7064 31.4515 38.863 28.2472C39.0457 24.9448 39.0457 15.0552 38.863 11.7528ZM34.7041 31.7907C34.0255 33.5401 32.7117 34.8879 30.9977 35.593C28.4311 36.6373 22.3407 36.3963 19.5044 36.3963C16.668 36.3963 10.5689 36.6284 8.01099 35.593C6.30569 34.8968 4.99191 33.549 4.30457 31.7907C3.28661 29.1576 3.52153 22.9097 3.52153 20C3.52153 17.0903 3.29532 10.8334 4.30457 8.20931C4.98321 6.45989 6.29699 5.11213 8.01099 4.40701C10.5776 3.36271 16.668 3.6037 19.5044 3.6037C22.3407 3.6037 28.4398 3.37164 30.9977 4.40701C32.703 5.1032 34.0168 6.45097 34.7041 8.20931C35.7221 10.8424 35.4872 17.0903 35.4872 20C35.4872 22.9097 35.7221 29.1666 34.7041 31.7907Z" fill="black"/>
</svg>
