<svg width="32" height="33" viewBox="0 0 32 33" fill="none" xmlns="http://www.w3.org/2000/svg">
<path d="M16.2871 8.46599C11.827 8.46599 8.22953 12.1566 8.22953 16.732C8.22953 21.3075 11.827 24.9981 16.2871 24.9981C20.7472 24.9981 24.3447 21.3075 24.3447 16.732C24.3447 12.1566 20.7472 8.46599 16.2871 8.46599ZM16.2871 22.106C13.4049 22.106 11.0486 19.696 11.0486 16.732C11.0486 13.7681 13.3979 11.358 16.2871 11.358C19.1764 11.358 21.5256 13.7681 21.5256 16.732C21.5256 19.696 19.1693 22.106 16.2871 22.106ZM26.5537 8.12787C26.5537 9.19979 25.7122 10.0559 24.6743 10.0559C23.6294 10.0559 22.7949 9.1926 22.7949 8.12787C22.7949 7.06314 23.6364 6.19985 24.6743 6.19985C25.7122 6.19985 26.5537 7.06314 26.5537 8.12787ZM31.8904 10.0847C31.7712 7.50198 31.1961 5.21425 29.3518 3.32939C27.5145 1.44454 25.2844 0.854618 22.7669 0.725124C20.1722 0.574047 12.3951 0.574047 9.80038 0.725124C7.28983 0.847424 5.05979 1.43734 3.21545 3.3222C1.37111 5.20706 0.803085 7.49479 0.676856 10.0775C0.52959 12.7393 0.52959 20.7176 0.676856 23.3794C0.796072 25.9621 1.37111 28.2498 3.21545 30.1347C5.05979 32.0195 7.28282 32.6095 9.80038 32.7389C12.3951 32.89 20.1722 32.89 22.7669 32.7389C25.2844 32.6166 27.5145 32.0267 29.3518 30.1347C31.1891 28.2498 31.7642 25.9621 31.8904 23.3794C32.0376 20.7176 32.0376 12.7465 31.8904 10.0847ZM28.5383 26.2355C27.9913 27.6455 26.9324 28.7318 25.5509 29.3002C23.4822 30.1419 18.5733 29.9476 16.2871 29.9476C14.001 29.9476 9.08508 30.1347 7.02335 29.3002C5.64886 28.739 4.58994 27.6527 4.03594 26.2355C3.21545 24.1132 3.4048 19.0773 3.4048 16.732C3.4048 14.3868 3.22247 9.34368 4.03594 7.22861C4.58293 5.81856 5.64185 4.73225 7.02335 4.16391C9.0921 3.3222 14.001 3.51644 16.2871 3.51644C18.5733 3.51644 23.4892 3.32939 25.5509 4.16391C26.9254 4.72505 27.9843 5.81137 28.5383 7.22861C29.3588 9.35087 29.1695 14.3868 29.1695 16.732C29.1695 19.0773 29.3588 24.1204 28.5383 26.2355Z" fill="#F3F3F3"/>
</svg>
