<svg width="33" height="33" viewBox="0 0 33 33" fill="none" xmlns="http://www.w3.org/2000/svg">
<path d="M7.45869 32.8523H0.774612V11.3274H7.45869V32.8523ZM4.11305 8.39126C1.97616 8.39126 0.242188 6.62092 0.242188 4.48355C0.242188 2.34618 1.97616 0.611816 4.11305 0.611816C6.24995 0.611816 7.98392 2.34618 7.98392 4.48355C7.98392 6.62092 6.24995 8.39126 4.11305 8.39126ZM32.4754 32.8523H25.8057V22.3741C25.8057 19.8769 25.7554 16.6745 22.3306 16.6745C18.8554 16.6745 18.323 19.3876 18.323 22.1942V32.8523H11.6461V11.3274H18.0568V14.2636H18.1503C19.0425 12.5724 21.2226 10.7877 24.4747 10.7877C31.2379 10.7877 32.4826 15.2424 32.4826 21.0284V32.8523H32.4754Z" fill="#F3F3F3"/>
</svg>
