<svg width="40" height="40" viewBox="0 0 40 40" fill="none" xmlns="http://www.w3.org/2000/svg">
<path d="M8.95336 40H0.660567V13.2946H8.95336V40ZM4.8025 9.65179C2.15131 9.65179 0 7.45536 0 4.80357C0 2.15179 2.15131 0 4.8025 0C7.45369 0 9.605 2.15179 9.605 4.80357C9.605 7.45536 7.45369 9.65179 4.8025 9.65179ZM39.9911 40H31.7161V27C31.7161 23.9018 31.6536 19.9286 27.4046 19.9286C23.0931 19.9286 22.4325 23.2946 22.4325 26.7768V40H14.1486V13.2946H22.1022V16.9375H22.2183C23.3251 14.8393 26.0299 12.625 30.0647 12.625C38.4557 12.625 40 18.1518 40 25.3304V40H39.9911Z" fill="black"/>
</svg>
